<?xml version="1.0" encoding="utf-8"?>
<!-- Generator: Adobe Illustrator 16.0.0, SVG Export Plug-In . SVG Version: 6.00 Build 0)  -->
<!DOCTYPE svg PUBLIC "-//W3C//DTD SVG 1.1//EN" "http://www.w3.org/Graphics/SVG/1.1/DTD/svg11.dtd">
<svg version="1.1" id="Layer_1" xmlns="http://www.w3.org/2000/svg" xmlns:xlink="http://www.w3.org/1999/xlink" x="0px" y="0px"
	 width="179.667px" height="107.667px" viewBox="0 0 179.667 107.667" enable-background="new 0 0 179.667 107.667"
	 xml:space="preserve">
<path fill="#939495" d="M30.809,63.975h32.175l2.831,7.495h14.91L54.801,3.228h-3.328L25.739,71.47h2.239L30.809,63.975z
	 M46.896,21.673l15.256,40.36H31.64L46.896,21.673z"/>
<polygon fill="#939495" points="77.548,102.534 62.152,102.534 62.152,104.475 104.87,104.475 104.87,102.534 92.526,102.534 
	86.717,87.243 71.773,87.243 "/>
<polygon fill="#939495" points="14.025,102.534 1.82,102.534 1.82,104.475 31.64,104.475 31.64,102.534 16.245,102.534 
	22.02,87.243 19.791,87.243 "/>
<polygon fill="#939495" points="112.633,104.563 118.606,87.243 106.624,87.243 "/>
<polygon fill="#939495" points="92.575,3.138 60.568,3.138 60.568,5.131 77.992,5.131 78.776,6.98 101.151,71.47 116.072,71.47 "/>
<polygon fill="#939495" points="146.629,5.984 146.915,5.984 146.915,71.47 161.138,71.47 161.138,5.131 176.928,5.131 
	176.928,3.138 145.491,3.138 121.896,71.47 123.947,71.47 "/>
<polygon fill="#939495" points="146.915,87.243 146.915,102.431 131.125,102.431 131.125,104.422 176.928,104.422 176.928,102.431 
	161.138,102.431 161.138,87.243 "/>
<path d="M8.067,80.336H4.525l-0.802,2.206c-0.177,0.542-0.18,0.9-0.012,1.126c0.128,0.176,0.353,0.254,0.687,0.254h0.049v0.095
	H2.042v-0.095h0.032c0.552,0,0.942-0.352,1.263-1.157l3.078-8.303h0.501l3.614,8.315c0.302,0.653,0.627,0.994,1.051,1.107
	c0.025,0.007,0.054,0.013,0.089,0.019c0.039,0.006,0.138,0.012,0.198,0.019v0.094H8.44v-0.094c0.082,0,0.211-0.002,0.25-0.007
	c0.202-0.025,0.351-0.095,0.442-0.219c0.134-0.188,0.126-0.474-0.022-0.875L8.067,80.336z M7.98,80.127l-1.812-4.302l-1.562,4.302
	H7.98z"/>
<path d="M15.887,84.017h-3.046v-0.095h0.015c0.247,0,0.432-0.056,0.566-0.183c0.2-0.194,0.294-0.53,0.294-1.056v-6.889
	c0-0.524-0.094-0.859-0.294-1.056c-0.134-0.128-0.309-0.183-0.536-0.183h-0.045v-0.096h3.046v0.096h-0.053
	c-0.216,0-0.399,0.059-0.529,0.185c-0.199,0.196-0.293,0.531-0.293,1.056v8.005l2.122,0.001c1.258,0,1.931-0.394,2.322-1.356
	l0.073-0.166h0.096v1.735L15.887,84.017L15.887,84.017z"/>
<path d="M26.29,80.336h-3.542l-0.802,2.206c-0.177,0.542-0.18,0.9-0.012,1.126c0.128,0.176,0.353,0.254,0.687,0.254h0.049v0.095
	h-2.405v-0.095h0.032c0.552,0,0.942-0.352,1.263-1.157l3.078-8.303h0.501l3.614,8.315c0.302,0.653,0.627,0.994,1.051,1.107
	c0.025,0.007,0.054,0.013,0.089,0.019c0.039,0.006,0.138,0.012,0.198,0.019v0.094h-3.428v-0.094c0.082,0,0.211-0.002,0.25-0.007
	c0.202-0.025,0.351-0.095,0.442-0.219c0.134-0.188,0.126-0.474-0.022-0.875L26.29,80.336z M26.203,80.127l-1.812-4.302l-1.562,4.302
	H26.203z"/>
<path d="M33.993,74.557c-0.216,0-0.399,0.059-0.529,0.185c-0.2,0.196-0.293,0.531-0.293,1.056v6.887
	c0,0.525,0.093,0.861,0.293,1.055c0.13,0.128,0.305,0.184,0.534,0.184h0.048v0.095H31v-0.095h0.015c0.247,0,0.432-0.056,0.566-0.183
	c0.2-0.194,0.293-0.53,0.293-1.056v-6.889c0-0.524-0.093-0.859-0.293-1.056c-0.134-0.128-0.309-0.183-0.536-0.183H31v-0.096h3.046
	v0.096H33.993z"/>
<path d="M44.259,74.462v0.095H44.21c-0.234,0-0.41,0.054-0.54,0.178c-0.17,0.159-0.277,0.554-0.287,1.056l-0.001,8.227h-0.449
	l-0.558-0.793l-5.798-7.906v7.368c0,0.524,0.091,0.846,0.294,1.044c0.137,0.132,0.317,0.192,0.536,0.192h0.046v0.095h-2.028
	l0.001-0.095c0.255,0.004,0.439-0.05,0.581-0.185c0.199-0.197,0.293-0.532,0.293-1.056v-6.887c0-0.523-0.094-0.859-0.294-1.056
	c-0.134-0.128-0.309-0.183-0.536-0.183h-0.045v-0.095h2.048l5.634,7.725l-0.005-6.394c0-0.521-0.093-0.855-0.292-1.052
	c-0.132-0.129-0.307-0.185-0.536-0.185h-0.048v-0.095H44.259z"/>
<path d="M62.152,83.921v0.095h-3.048v-0.095h0.046c0.23,0,0.406-0.056,0.537-0.183c0.2-0.193,0.294-0.528,0.294-1.056v-7.665
	l-3.723,8.675h-0.305l-3.694-7.933l0.008,7.107c0,0.013,0,0.024,0,0.037l0.002,0.051h0.001c0.033,0.602,0.36,0.966,0.86,0.966h0.043
	v0.095h-2.092v-0.095h0.044c0.514,0,0.844-0.385,0.862-1.017v-0.004c0-0.012,0-0.022,0-0.033v-7.355v-0.003
	c-0.029-0.646-0.285-0.952-0.784-0.952h-0.047v-0.096h2.021l3.46,7.648l3.272-7.648h2.241v0.096h-0.029
	c-0.234,0-0.42,0.056-0.552,0.183c-0.202,0.195-0.295,0.532-0.293,1.057v6.882c0,0.528,0.094,0.863,0.296,1.057
	c0.133,0.13,0.308,0.187,0.535,0.187H62.152z"/>
<path d="M69.602,80.336H66.06l-0.802,2.205c-0.177,0.542-0.18,0.9-0.012,1.126c0.128,0.176,0.353,0.254,0.687,0.254h0.049v0.095
	h-2.405v-0.095h0.032c0.552,0,0.942-0.352,1.263-1.157l3.078-8.303h0.501l3.613,8.315c0.303,0.653,0.628,0.996,1.052,1.107
	c0.025,0.007,0.054,0.014,0.089,0.019c0.039,0.006,0.138,0.012,0.198,0.019v0.095h-3.428v-0.095c0.082,0,0.211-0.002,0.249-0.007
	c0.203-0.025,0.352-0.094,0.443-0.219c0.133-0.188,0.126-0.474-0.022-0.875L69.602,80.336z M69.515,80.126l-1.812-4.302
	l-1.562,4.302H69.515z"/>
<path d="M76.797,79.504v3.176c0,0.524,0.093,0.86,0.293,1.058c0.13,0.128,0.306,0.184,0.536,0.184h0.049v0.095h-3.051v-0.095
	c0.25,0.006,0.439-0.049,0.581-0.183c0.2-0.194,0.293-0.53,0.293-1.056v-6.885c0-0.525-0.093-0.861-0.293-1.056
	c-0.136-0.131-0.31-0.186-0.533-0.186h-0.048v-0.096h4.209c2.121,0,3.338,0.892,3.338,2.445c0,1.418-1.065,2.349-2.921,2.554
	l-0.349,0.038l0.298,0.185c0.028,0.018,0.055,0.035,0.082,0.053l0.046,0.03c0.043,0.028,0.077,0.051,0.099,0.062
	c0.349,0.211,0.665,0.489,0.968,0.853c0.077,0.088,0.146,0.175,0.211,0.266l0.192,0.267l0.257,0.362
	c0.289,0.41,0.616,0.875,0.972,1.295l0.027,0.032c0.287,0.34,0.766,0.91,1.376,1.019v0.095c-0.166,0-0.683,0-0.916-0.002
	l-0.217-0.002c-1.374,0-1.819-0.896-2.436-2.138l-0.012-0.025c-0.165-0.336-0.299-0.6-0.452-0.878
	c-0.224-0.41-0.501-0.759-0.826-1.035c-0.135-0.116-0.286-0.224-0.45-0.318l-0.06-0.038c-0.025-0.016-0.057-0.034-0.093-0.054
	l-0.029-0.021H76.797z M76.797,79.296h1.667c1.46,0,2.333-0.892,2.333-2.386c0-0.714-0.17-1.271-0.506-1.654
	c-0.338-0.386-0.827-0.581-1.456-0.581h-2.038V79.296z"/>
<path d="M88.499,74.67v8.012c0,0.528,0.093,0.863,0.293,1.056c0.135,0.131,0.305,0.185,0.536,0.185h0.045v0.096h-3.049v-0.096h0.034
	c0.237,0,0.415-0.055,0.547-0.183c0.202-0.197,0.297-0.533,0.297-1.058V74.67h-1.284c-1.221,0-1.916,0.426-2.323,1.421l-0.072,0.166
	h-0.094v-1.794h8.84v1.796h-0.096l-0.069-0.163c-0.405-0.999-1.101-1.426-2.325-1.426H88.499z"/>
<path d="M96.907,74.556c-0.217,0-0.399,0.06-0.529,0.185c-0.2,0.196-0.293,0.532-0.293,1.057v6.886c0,0.525,0.093,0.861,0.293,1.055
	c0.13,0.129,0.305,0.184,0.534,0.184h0.047v0.095h-3.046v-0.095h0.015c0.248,0,0.433-0.055,0.566-0.183
	c0.2-0.194,0.294-0.53,0.294-1.056v-6.888c0-0.524-0.094-0.86-0.294-1.057c-0.134-0.128-0.309-0.183-0.535-0.183h-0.046v-0.095
	h3.046v0.095H96.907z"/>
<path d="M107.416,74.461v0.096h-0.049c-0.233,0-0.411,0.053-0.541,0.177c-0.169,0.159-0.276,0.554-0.286,1.057l-0.002,8.226h-0.448
	l-0.558-0.793l-5.799-7.906v7.368c0,0.524,0.091,0.846,0.295,1.044c0.136,0.133,0.316,0.192,0.536,0.192h0.045v0.095h-2.027v-0.095
	c0.256,0.004,0.44-0.05,0.581-0.185c0.2-0.196,0.293-0.532,0.293-1.056v-6.887c0-0.523-0.093-0.859-0.293-1.056
	c-0.134-0.128-0.31-0.182-0.535-0.182h-0.046v-0.096h2.049l5.634,7.725l-0.005-6.394c0-0.521-0.094-0.855-0.293-1.052
	c-0.132-0.129-0.307-0.184-0.536-0.184h-0.047v-0.096H107.416z"/>
<path d="M108.824,83.921h0.044c0.227,0,0.404-0.056,0.541-0.186c0.2-0.197,0.293-0.533,0.293-1.056v-6.886
	c0-0.522-0.094-0.858-0.295-1.054c-0.135-0.129-0.311-0.184-0.536-0.184h-0.047v-0.096h6.448v1.561h-0.096V76.02
	c-0.387-0.945-1.102-1.349-2.391-1.349H111v4.05h1.379c1.068,0,1.594-0.229,1.876-0.812l0.03-0.064h0.096v2.079h-0.093l-0.032-0.072
	c-0.28-0.661-0.806-0.919-1.876-0.919H111v4.874h2.083c1.165,0,1.833-0.346,2.232-1.157c0.003-0.007,0.098-0.22,0.163-0.367h0.095
	v1.734h-6.749V83.921z"/>
<path d="M120.863,83.808c1.265,0,1.549-0.384,1.979-1.365l0.084-0.173h0.095v1.748h-6.196v-0.234l4.062-9.108h-1.909
	c-1.271,0-1.964,0.396-2.392,1.368l-0.083,0.172h-0.096v-1.752h5.851V74.7l-4.04,9.108H120.863z"/>
<path d="M136.043,81.393c0,0.327-0.07,0.647-0.214,0.979c-0.312,0.711-1.021,1.14-1.414,1.334c-0.58,0.279-1.254,0.428-1.95,0.428
	c-0.424,0-0.842-0.053-1.243-0.157c-0.817-0.211-1.52-0.528-1.528-0.532c-0.047-0.02-0.1-0.03-0.153-0.03
	c-0.126,0-0.204,0.054-0.268,0.104h-0.156v-2.401h0.094l0.001,0.002c0.396,1.321,1.006,2.149,1.868,2.534
	c0.296,0.131,0.625,0.217,0.95,0.25c0.113,0.012,0.229,0.017,0.346,0.017c0.804,0,1.824-0.289,2.277-1.102
	c0.529-0.966,0.002-1.895-0.755-2.388c-0.396-0.261-0.838-0.415-1.229-0.55l-0.438-0.157c-0.992-0.349-2.117-0.744-2.747-1.556
	c-0.576-0.748-0.519-1.94,0.131-2.717c0.21-0.251,0.482-0.478,0.766-0.641c0.533-0.307,1.188-0.462,1.948-0.462h0.009
	c0.726,0,1.513,0.146,2.219,0.414l0.004,0.002c0.036,0.01,0.132,0.039,0.23,0.039c0.107,0,0.188-0.033,0.242-0.097h0.158v2.181
	h-0.096c-0.133-0.393-0.562-1.221-0.93-1.624c-0.286-0.318-0.724-0.545-1.232-0.639c-0.23-0.042-0.452-0.063-0.657-0.063
	c-0.227,0-0.438,0.024-0.644,0.075c-0.687,0.168-1.425,0.756-1.425,1.652c0,1.339,1.594,1.884,2.275,2.117l0.239,0.08
	c0.942,0.313,1.916,0.639,2.639,1.335C135.807,80.25,136.043,80.793,136.043,81.393"/>
<path d="M141.272,74.67v8.011c0,0.529,0.093,0.864,0.293,1.057c0.135,0.131,0.305,0.185,0.535,0.185h0.046v0.095h-3.05v-0.095h0.035
	c0.235,0,0.415-0.056,0.547-0.183c0.202-0.197,0.296-0.533,0.296-1.059V74.67h-1.283c-1.221,0-1.916,0.425-2.323,1.421l-0.071,0.166
	h-0.095v-1.795h8.84v1.796h-0.095l-0.07-0.162c-0.405-1-1.101-1.426-2.324-1.426H141.272z"/>
<path d="M152.936,83.511c-0.484,0.393-1.295,0.623-2.223,0.623c-0.439,0-0.92-0.063-1.353-0.17
	c-0.773-0.189-1.413-0.622-1.801-1.218c-0.185-0.283-0.321-0.614-0.407-0.985c-0.167-0.7-0.18-1.467-0.189-2.144l-0.001-0.019
	c-0.009-0.476-0.011-1.571-0.011-2.408v-1.397c0-0.823-0.234-1.198-0.761-1.236h-0.115v-0.096h3.05v0.096h-0.076
	c-0.126,0.002-0.249,0.021-0.354,0.069c-0.079,0.037-0.148,0.093-0.206,0.166c-0.055,0.068-0.101,0.152-0.137,0.25
	c-0.038,0.1-0.063,0.211-0.08,0.341c-0.018,0.137-0.025,0.279-0.025,0.423c0,0.396,0,3.889,0.005,4.274
	c0,0.446,0.021,0.826,0.064,1.198c0.068,0.575,0.196,1.033,0.382,1.36c0.184,0.331,0.455,0.609,0.809,0.828
	c0.35,0.215,0.782,0.324,1.287,0.324c0.521,0,1.259-0.077,1.812-0.44c0.511-0.333,0.864-0.769,1.052-1.293
	c0.179-0.494,0.177-1.353,0.176-2.44v-3.673c0-0.574-0.105-0.946-0.331-1.168c-0.158-0.152-0.369-0.22-0.644-0.22h-0.079v-0.095
	h2.375v0.095h-0.179c-0.204,0.019-0.363,0.084-0.489,0.206c-0.223,0.213-0.326,0.588-0.326,1.178l-0.006,3.594
	c0,1.094-0.014,1.913-0.189,2.497C153.793,82.601,153.447,83.099,152.936,83.511"/>
<path d="M160.307,84.016h-4.116v-0.095h0.049c0.223,0,0.396-0.056,0.532-0.185c0.2-0.196,0.293-0.531,0.293-1.056v-6.886
	c0-0.526-0.093-0.861-0.293-1.054c-0.133-0.13-0.309-0.185-0.536-0.185h-0.045v-0.096h3.581c3.28,0,5.163,1.741,5.163,4.777
	S163.249,84.016,160.307,84.016 M158.366,83.809h1.941c2.112,0,3.325-1.666,3.327-4.57c0-2.903-1.407-4.567-3.86-4.567h-1.408
	V83.809z"/>
<path d="M168.711,74.557c-0.216,0-0.398,0.059-0.528,0.184c-0.201,0.197-0.293,0.532-0.293,1.057v6.886
	c0,0.526,0.092,0.861,0.293,1.056c0.13,0.128,0.305,0.183,0.534,0.183h0.047v0.096h-3.046v-0.096h0.015
	c0.248,0,0.433-0.055,0.566-0.183c0.2-0.194,0.294-0.529,0.294-1.056v-6.888c0-0.524-0.094-0.859-0.294-1.056
	c-0.134-0.128-0.309-0.183-0.535-0.183h-0.046v-0.096h3.046v0.096H168.711z"/>
<path d="M179.088,79.184c0,1.415-0.472,2.608-1.401,3.544c-0.93,0.933-2.07,1.406-3.391,1.406c-1.336,0-2.473-0.462-3.38-1.373
	c-0.908-0.913-1.369-2.108-1.369-3.558c0-1.481,0.532-2.704,1.582-3.638c0.911-0.81,2.017-1.222,3.284-1.222
	c1.258,0,2.363,0.465,3.284,1.384C178.621,76.643,179.088,77.806,179.088,79.184 M177.67,79.369c0-1.678-0.354-2.956-1.051-3.799
	c-0.564-0.672-1.354-1.014-2.346-1.014c-0.936,0-1.697,0.342-2.262,1.014c-0.693,0.816-1.045,2.027-1.045,3.599
	c0,1.609,0.364,2.866,1.082,3.734c0.559,0.678,1.312,1.021,2.233,1.021c0.976,0,1.795-0.374,2.435-1.111
	C177.349,82.083,177.67,80.923,177.67,79.369"/>
</svg>
